<svg viewBox="0 0 900 780" xmlns="http://www.w3.org/2000/svg" font-family="Arial, sans-serif">
  <rect x="0" y="0" width="900" height="780" fill="#ffffff"/>
  <text x="450" y="36" text-anchor="middle" font-size="22" font-weight="bold" fill="#1F4E5F">תוכנית מוצעת — הרחבת חדר הישיבות</text>
  <text x="450" y="58" text-anchor="middle" font-size="13" fill="#666">קנה מידה סכמטי · 1:100 בקירוב · צפון למעלה</text>

  <rect x="80" y="100" width="739" height="560" fill="#FAFAF7" stroke="none"/>
  <rect x="80" y="100" width="453.6" height="218.4" fill="#E6F1FB"/>
  <rect x="533.6" y="100" width="285.6" height="218.4" fill="#FDF6EC"/>

  <g stroke="#2C2C2A" stroke-width="9" fill="none">
    <line x1="80" y1="100" x2="560" y2="100"/>
    <line x1="700" y1="100" x2="819" y2="100"/>
    <line x1="819" y1="100" x2="819" y2="660"/>
    <line x1="80" y1="660" x2="819" y2="660"/>
    <line x1="80" y1="100" x2="80" y2="660"/>
  </g>

  <g stroke="#2C2C2A" stroke-width="7" fill="none">
    <line x1="80" y1="325" x2="420" y2="325"/>
    <line x1="475" y1="325" x2="640" y2="325"/>
    <line x1="720" y1="325" x2="819" y2="325"/>
    <line x1="326" y1="325" x2="326" y2="400"/>
    <line x1="326" y1="455" x2="326" y2="660"/>
    <line x1="80" y1="556" x2="200" y2="556"/>
    <line x1="255" y1="556" x2="326" y2="556"/>
  </g>

  <g stroke="#D85A30" stroke-width="5" stroke-dasharray="10 7" fill="none">
    <line x1="399" y1="104" x2="399" y2="321"/>
  </g>
  <text x="399" y="92" text-anchor="middle" font-size="12" font-weight="bold" fill="#D85A30">קיר קיים — לפירוק</text>

  <g stroke="#185FA5" stroke-width="5" fill="none">
    <line x1="533.6" y1="100" x2="533.6" y2="158"/>
    <line x1="533.6" y1="262" x2="533.6" y2="318.4"/>
  </g>
  <g stroke="#378ADD" stroke-width="2" fill="none">
    <line x1="533.6" y1="158" x2="533.6" y2="262"/>
    <path d="M 533.6 158 A 52 52 0 0 1 585.6 210" />
    <path d="M 533.6 262 A 52 52 0 0 0 585.6 210" />
  </g>
  <text x="548" y="352" text-anchor="start" font-size="12" font-weight="bold" fill="#185FA5">מחיצת זכוכית אקוסטית + דלת כנף כפולה — חדש</text>

  <g stroke="#555" stroke-width="1.5" fill="none">
    <line x1="560" y1="100" x2="560" y2="152"/>
    <path d="M 560 152 A 52 52 0 0 0 612 100"/>
    <line x1="700" y1="100" x2="700" y2="152"/>
    <path d="M 700 152 A 52 52 0 0 1 648 100"/>
    <line x1="420" y1="325" x2="472" y2="325"/>
    <path d="M 420 325 A 52 52 0 0 0 472 377" transform="translate(0,0)"/>
    <line x1="640" y1="325" x2="640" y2="373"/>
    <path d="M 640 373 A 48 48 0 0 0 688 325"/>
    <line x1="720" y1="325" x2="720" y2="373"/>
    <path d="M 720 373 A 48 48 0 0 1 672 325"/>
    <line x1="326" y1="400" x2="374" y2="400"/>
    <path d="M 374 400 A 48 48 0 0 0 326 448"/>
    <line x1="200" y1="556" x2="200" y2="604"/>
    <path d="M 200 604 A 48 48 0 0 1 152 556"/>
  </g>
  <text x="630" y="128" text-anchor="middle" font-size="12" fill="#555">כניסה ראשית</text>

  <g fill="#FFFFFF" stroke="#5F5E5A" stroke-width="2">
    <rect x="172" y="170" width="269" height="78" rx="6"/>
  </g>
  <text x="306" y="214" text-anchor="middle" font-size="13" fill="#444">שולחן ישיבות 4.8 × 1.4</text>
  <g fill="#D9E7F5" stroke="#888" stroke-width="1.5">
    <rect x="185" y="140" width="32" height="24" rx="5"/><rect x="228" y="140" width="32" height="24" rx="5"/><rect x="271" y="140" width="32" height="24" rx="5"/><rect x="314" y="140" width="32" height="24" rx="5"/><rect x="357" y="140" width="32" height="24" rx="5"/><rect x="400" y="140" width="32" height="24" rx="5"/>
    <rect x="185" y="254" width="32" height="24" rx="5"/><rect x="228" y="254" width="32" height="24" rx="5"/><rect x="271" y="254" width="32" height="24" rx="5"/><rect x="314" y="254" width="32" height="24" rx="5"/><rect x="357" y="254" width="32" height="24" rx="5"/><rect x="400" y="254" width="32" height="24" rx="5"/>
    <rect x="138" y="196" width="24" height="32" rx="5"/><rect x="451" y="196" width="24" height="32" rx="5"/>
  </g>
  <rect x="84" y="168" width="8" height="82" fill="#444"/>
  <text x="106" y="213" text-anchor="middle" font-size="11" fill="#666" transform="rotate(-90 106 213)">מסך 85"</text>
  <text x="306" y="305" text-anchor="middle" font-size="15" font-weight="bold" fill="#185FA5">חדר ישיבות — 31.5 מ"ר · 14–16 מושבים</text>

  <g fill="#FFFFFF" stroke="#888" stroke-width="1.5">
    <rect x="762" y="140" width="50" height="75"/>
    <rect x="762" y="235" width="50" height="75"/>
    <rect x="726" y="165" width="26" height="26" rx="6"/>
    <rect x="726" y="260" width="26" height="26" rx="6"/>
    <circle cx="610" cy="265" r="24"/>
    <rect x="560" y="240" width="30" height="30" rx="8"/>
  </g>
  <text x="672" y="215" text-anchor="middle" font-size="13" font-weight="bold" fill="#993C1D">משרד — 12 מ"ר</text>
  <text x="672" y="232" text-anchor="middle" font-size="11" fill="#888">2 עמדות + פינת המתנה</text>

  <g fill="#FFFFFF" stroke="#888" stroke-width="1.5">
    <rect x="92" y="380" width="120" height="95" rx="4"/>
    <rect x="97" y="385" width="52" height="22" rx="4"/><rect x="155" y="385" width="52" height="22" rx="4"/>
    <rect x="92" y="357" width="26" height="20"/><rect x="186" y="357" width="26" height="20"/>
    <rect x="92" y="520" width="210" height="26"/>
    <line x1="92" y1="533" x2="302" y2="533"/>
  </g>
  <text x="200" y="500" text-anchor="middle" font-size="13" font-weight="bold" fill="#444">חדר שינה</text>
  <text x="197" y="540" text-anchor="middle" font-size="10" fill="#888">ארון הזזה</text>

  <g fill="#FFFFFF" stroke="#888" stroke-width="1.5">
    <rect x="92" y="600" width="92" height="44" rx="18"/>
    <circle cx="230" cy="590" r="12"/>
    <rect x="270" y="580" width="22" height="30" rx="6"/>
  </g>
  <text x="180" y="580" text-anchor="middle" font-size="12" font-weight="bold" fill="#444">חדר רחצה</text>

  <g fill="#FFFFFF" stroke="#888" stroke-width="1.5">
    <rect x="470" y="380" width="36" height="140" rx="8"/>
    <rect x="704" y="380" width="36" height="140" rx="8"/>
    <rect x="580" y="425" width="52" height="52"/>
    <circle cx="662" cy="452" r="22"/>
    <rect x="520" y="575" width="42" height="42" rx="8" transform="rotate(-8 541 596)"/>
    <rect x="640" y="575" width="42" height="42" rx="8" transform="rotate(8 661 596)"/>
    <circle cx="605" cy="600" r="11"/>
    <rect x="795" y="380" width="18" height="120"/>
    <rect x="390" y="430" width="26" height="150"/>
  </g>
  <text x="608" y="365" text-anchor="middle" font-size="13" font-weight="bold" fill="#444">סלון</text>

  <g stroke="#185FA5" stroke-width="1.2" fill="none">
    <line x1="80" y1="82" x2="533.6" y2="82"/>
    <line x1="80" y1="76" x2="80" y2="88"/><line x1="533.6" y1="76" x2="533.6" y2="88"/>
  </g>
  <text x="306" y="76" text-anchor="middle" font-size="12" font-weight="bold" fill="#185FA5">8.10 מ'</text>
  <g stroke="#185FA5" stroke-width="1.2" fill="none">
    <line x1="62" y1="100" x2="62" y2="318.4"/>
    <line x1="56" y1="100" x2="68" y2="100"/><line x1="56" y1="318.4" x2="68" y2="318.4"/>
  </g>
  <text x="48" y="213" text-anchor="middle" font-size="12" font-weight="bold" fill="#185FA5" transform="rotate(-90 48 213)">3.90 מ'</text>

  <g transform="translate(852,120)">
    <circle cx="0" cy="0" r="18" fill="none" stroke="#888" stroke-width="1.5"/>
    <path d="M 0 -14 L 6 8 L 0 3 L -6 8 Z" fill="#444"/>
    <text x="0" y="34" text-anchor="middle" font-size="12" fill="#666">צפון</text>
  </g>

  <g transform="translate(80,700)" font-size="12" fill="#444">
    <line x1="0" y1="0" x2="34" y2="0" stroke="#D85A30" stroke-width="4" stroke-dasharray="8 6"/>
    <text x="42" y="4">קיר לפירוק (מחיצה לא נושאת + ביטול מבואה)</text>
    <line x1="330" y1="0" x2="364" y2="0" stroke="#378ADD" stroke-width="4"/>
    <text x="372" y="4">מחיצת זכוכית אקוסטית חדשה</text>
    <rect x="600" y="-9" width="18" height="18" fill="#E6F1FB" stroke="#B5D4F4"/>
    <text x="626" y="4">שטח חדר הישיבות המוגדל</text>
    <text x="0" y="34" fill="#888">הערה: מיקומים ומידות סכמטיים; מידות סופיות לאחר מדידה באתר ואישור מהנדס.</text>
  </g>
</svg>
